<svg t="1700301629971" class="icon" viewBox="0 0 1024 1024" version="1.1" xmlns="http://www.w3.org/2000/svg" p-id="1418" width="200" height="200"><path d="M736 300.8H192V185.6h544v115.2z m0 192H192V377.6h544v115.2z m-256 192H192V569.6h288v115.2z" p-id="1419"></path><path d="M115.2 108.8h729.6v409.6H960V0H0v960h608V851.2H115.2V108.8z" p-id="1420"></path><path d="M748.8 870.4c-96 0-172.8-76.8-172.8-172.8s76.8-172.8 172.8-172.8 172.8 76.8 172.8 172.8-76.8 172.8-172.8 172.8z m0-230.4c-32 0-57.6 25.6-57.6 57.6s25.6 57.6 57.6 57.6 57.6-25.6 57.6-57.6-25.6-57.6-57.6-57.6z" p-id="1421"></path><path d="M772.928 807.552l88.256-74.048 144 171.52-88.32 74.112z" p-id="1422"></path></svg>